PathFileType	4	(X/Y/Z)	/Users/itak/Documents/Research/Walk-IL/dataset/trc/00234_00009.trc
DataRate	CameraRate	NumFrames	NumMarkers	Units	OrigDataRate	OrigDataStartFrame	OrigNumFrames
100.000000	100.000000	4	53	mm	100.000000	292	780
Frame#	Time	RPSI			LPSI			L3			STRN			T10			C7			CLAV			RBAK			LBAK			LSHO			LUPA			LAEL			LAOL			LWTS			LWPS			LFRA			LIFD			LHPS			LHTS			RSHO			RUPA			RAEL			RAOL			RWTS			RWPS			RFRA			RIFD			RHTS			RHPS			RBHD			LFHD			RFHD			LBHD			LHIP			RHIP			RASI			LASI			LKNE			LTHI			LANK			LTIP			LTOE			LMT1			LMT5			LHEE			RKNE			RTHI			RANK			RTIP			RTOE			RMT1			RMT5			RHEE			
		X1	Y1	Z1	X2	Y2	Z2	X3	Y3	Z3	X4	Y4	Z4	X5	Y5	Z5	X6	Y6	Z6	X7	Y7	Z7	X8	Y8	Z8	X9	Y9	Z9	X10	Y10	Z10	X11	Y11	Z11	X12	Y12	Z12	X13	Y13	Z13	X14	Y14	Z14	X15	Y15	Z15	X16	Y16	Z16	X17	Y17	Z17	X18	Y18	Z18	X19	Y19	Z19	X20	Y20	Z20	X21	Y21	Z21	X22	Y22	Z22	X23	Y23	Z23	X24	Y24	Z24	X25	Y25	Z25	X26	Y26	Z26	X27	Y27	Z27	X28	Y28	Z28	X29	Y29	Z29	X30	Y30	Z30	X31	Y31	Z31	X32	Y32	Z32	X33	Y33	Z33	X34	Y34	Z34	X35	Y35	Z35	X36	Y36	Z36	X37	Y37	Z37	X38	Y38	Z38	X39	Y39	Z39	X40	Y40	Z40	X41	Y41	Z41	X42	Y42	Z42	X43	Y43	Z43	X44	Y44	Z44	X45	Y45	Z45	X46	Y46	Z46	X47	Y47	Z47	X48	Y48	Z48	X49	Y49	Z49	X50	Y50	Z50	X51	Y51	Z51	X52	Y52	Z52	X53	Y53	Z53	

293	2.92	867.9691772460938	1005.028747558594	98.83684539794922	747.537841796875	1011.299743652344	108.9862518310547	782.376708984375	1093.1787109375	110.2001571655273	764.0695190429688	1276.331665039062	-134.3809051513672	777.950927734375	1220.10107421875	115.9203720092773	764.7012939453125	1481.370239257812	53.5606689453125	764.9711303710938	1393.760498046875	-109.2070922851562	840.8055419921875	1343.559814453125	130.2038879394531	654.0540161132812	1441.576171875	75.89654541015625	598.12890625	1439.6044921875	-13.86169910430908	520.9821166992188	1320.69482421875	6.906289577484131	496.5225219726562	1114.326171875	-39.09600448608398	534.2857666015625	1085.433715820312	34.87779998779297	593.1980590820312	923.4771118164062	-178.9945831298828	511.7662658691406	894.933837890625	-175.9061889648438	496.6764526367188	1016.907836914062	-90.84523010253906	606.23583984375	741.1717529296875	-244.7461090087891	528.718505859375	817.6829223632812	-218.9584655761719	588.4969482421875	838.7396240234375	-246.2030792236328	933.2572021484375	1441.00732421875	-6.342939853668213	1000.529174804688	1376.667846679688	11.74326992034912	1050.781127929688	1099.059692382812	29.92277717590332	964.2511596679688	1088.61767578125	69.23979187011719	1012.763854980469	878.2467651367188	-96.69036865234375	1080.998168945312	870.3631591796875	-48.33786392211914	1065.220581054688	1030.91162109375	4.675454139709473	1018.52685546875	683.6740112304688	-104.2317199707031	1032.2939453125	756.8776245117188	-131.8911285400391	1086.33984375	762.0567626953125	-83.77057647705078	833.4810791015625	1638.838745117188	-18.19452857971191	675.9878540039062	1672.81494140625	-179.0894317626953	770.711181640625	1670.433959960938	-211.8573608398438	693.2026977539062	1645.518920898438	-17.13832855224609	595.2488403320312	949.2783203125	26.03778076171875	960.4569702148438	973.8423461914062	-14.51383876800537	910.3670654296875	1019.426574707031	-100.7823715209961	629.6585693359375	995.0934448242188	-80.63678741455078	679.8267211914062	471.12548828125	34.84767150878906	639.4834594726562	612.4153442382812	19.86136054992676	726.3692626953125	53.53096771240234	281.6808166503906	695.7576293945312	269.0665588378906	157.1171264648438	831.4595947265625	32.56842422485352	89.21907806396484	853.3567504882812	36.64458465576172	165.6330718994141	738.0407104492188	33.35513687133789	155.6005706787109	762.015625	81.28273010253906	350.8580932617188	897.2431640625	524.1796875	-217.9987030029297	952.58154296875	772.6188354492188	-134.0130310058594	908.638916015625	24.30792617797852	-248.5114593505859	878.9569091796875	405.7505187988281	-253.2860412597656	782.150146484375	56.62219619750977	-417.6880798339844	765.0264282226562	48.08435440063477	-350.0360412597656	882.6130981445312	29.33254432678223	-357.9160461425781	879.5916137695312	23.42432594299316	-167.1596069335938	
294	2.93	869.4185180664062	1005.347900390625	89.17562866210938	748.9810791015625	1011.165344238281	100.2651596069336	783.9959716796875	1092.82421875	101.2755355834961	763.5934448242188	1276.747680664062	-142.3822631835938	780.18212890625	1219.834594726562	107.6238555908203	766.470947265625	1481.282592773438	46.16670608520508	764.7393188476562	1394.023681640625	-116.8259124755859	843.1633911132812	1343.23779296875	121.6297073364258	656.0926513671875	1441.320922851562	69.63688659667969	598.9763793945312	1439.580322265625	-19.27180671691895	522.0516357421875	1320.358276367188	2.902555704116821	497.6618957519531	1113.633056640625	-41.11274719238281	537.2757568359375	1085.6279296875	32.22789001464844	589.9058837890625	919.6307373046875	-179.7789611816406	508.2496948242188	891.9939575195312	-174.3846893310547	496.0668029785156	1015.433959960938	-91.229248046875	599.2750854492188	735.8386840820312	-242.3320770263672	523.3490600585938	813.8297119140625	-216.29736328125	582.6425170898438	833.5252075195312	-245.1669006347656	934.2824096679688	1440.930297851562	-15.62918376922607	1001.681579589844	1376.493408203125	1.605525612831116	1051.880249023438	1098.83203125	18.93099594116211	965.8385009765625	1088.491577148438	59.2979736328125	1012.222778320312	877.7626342773438	-106.7101745605469	1081.070068359375	869.962890625	-59.18241119384766	1065.95263671875	1030.645874023438	-6.365168571472168	1017.850402832031	683.0955810546875	-113.7226409912109	1031.11328125	756.0359497070312	-141.6203308105469	1085.905151367188	761.544189453125	-94.31940460205078	834.1490478515625	1639.442749023438	-26.58920478820801	674.6919555664062	1672.593872070312	-185.7114868164062	768.97802734375	1670.311645507812	-219.4926300048828	693.9663696289062	1645.794677734375	-23.86956787109375	596.3179931640625	948.6107177734375	18.54706764221191	961.0477294921875	974.7125244140625	-25.16780662536621	910.1148071289062	1019.893798828125	-110.9271774291992	629.5521850585938	994.68115234375	-88.39578247070312	680.0885620117188	470.4593200683594	26.85785484313965	640.1109619140625	611.7692260742188	12.18796920776367	727.1876831054688	56.67329025268555	280.9635314941406	696.3656005859375	270.3009948730469	152.5082397460938	831.3867797851562	32.57646179199219	88.96828460693359	853.5599975585938	37.46224212646484	164.9250183105469	738.5380249023438	33.5264778137207	155.4486236572266	763.156982421875	86.08046722412109	349.2911376953125	895.6701049804688	524.6199951171875	-227.5829925537109	951.4323120117188	773.4264526367188	-144.7626800537109	908.8594360351562	24.0929012298584	-249.0080261230469	877.5376586914062	405.352783203125	-261.0295104980469	781.4893798828125	51.78189849853516	-419.2265625	765.077880859375	45.20347213745117	-351.1741027832031	883.2944946289062	27.45942115783691	-358.7321472167969	879.88134765625	24.34293937683105	-167.7012176513672	
295	2.94	870.6280517578125	1005.818664550781	79.50800323486328	750.2378540039062	1011.143188476562	91.5400390625	785.427734375	1092.674438476562	92.361328125	763.0485229492188	1277.338500976562	-150.3892669677734	782.2765502929688	1219.785522460938	99.33740234375	768.227294921875	1481.38671875	38.71740341186523	764.460205078125	1394.467895507812	-124.4650421142578	845.4564819335938	1343.122436523438	112.9910354614258	658.1126708984375	1441.30712890625	63.31344604492188	599.8683471679688	1439.813232421875	-24.72810935974121	523.0892333984375	1320.297485351562	-1.155158877372742	498.8416137695312	1113.244140625	-43.0428466796875	540.387451171875	1086.140747070312	29.62273597717285	586.53662109375	915.9735717773438	-180.1770324707031	504.7908020019531	889.3140258789062	-172.4199523925781	495.5139770507812	1014.237609863281	-91.37641143798828	592.3043823242188	730.7509155273438	-239.2870025634766	518.0277709960938	810.2343139648438	-213.0648651123047	576.7398681640625	828.5211181640625	-243.6009674072266	935.2459716796875	1441.039184570312	-24.99184226989746	1002.766906738281	1376.507934570312	-8.623441696166992	1052.8779296875	1098.78955078125	7.780903339385986	967.3560180664062	1088.551513671875	49.2265625	1011.54296875	877.43505859375	-116.8397750854492	1081.0439453125	869.7647705078125	-70.20533752441406	1066.57470703125	1030.576171875	-17.57478332519531	1017.093139648438	682.659912109375	-123.2127914428711	1029.797607421875	755.3425903320312	-151.3996429443359	1085.38330078125	761.21826171875	-104.9724578857422	834.7833251953125	1640.196899414062	-35.02778625488281	673.3416748046875	1672.570190429688	-192.3140563964844	767.1795654296875	1670.402954101562	-227.1214904785156	694.7090454101562	1646.222778320312	-30.61783218383789	597.2651977539062	948.0463256835938	10.95155143737793	961.4710693359375	975.8025512695312	-35.75393295288086	909.796142578125	1020.621826171875	-121.0420227050781	629.3829956054688	994.40234375	-96.15261840820312	680.1762084960938	469.80419921875	18.21075630187988	640.58447265625	611.185302734375	4.031128406524658	728.0979614257812	60.19748687744141	280.0161743164062	696.8558349609375	271.7746276855469	147.4555358886719	831.302490234375	32.60364151000977	88.70725250244141	853.7814331054688	38.36370849609375	164.0826110839844	739.0731201171875	33.70855712890625	155.2207946777344	764.3950805664062	91.45471954345703	347.2875061035156	894.5277099609375	524.9506225585938	-236.6660461425781	950.514404296875	774.3616943359375	-155.3008575439453	909.111572265625	24.00164794921875	-249.4087677001953	876.4724731445312	404.9719848632812	-268.2882080078125	781.1434326171875	47.75043487548828	-420.5730895996094	765.3616943359375	42.95706558227539	-352.2423095703125	884.2073974609375	26.12656784057617	-359.3734741210938	880.1618041992188	25.107421875	-168.1831817626953	
296	2.95	871.6429443359375	1006.425476074219	69.83876800537109	751.364501953125	1011.232482910156	82.84725189208984	786.7228393554688	1092.729370117188	83.48281860351562	762.4171142578125	1278.090454101562	-158.3841094970703	784.232177734375	1219.943725585938	91.06474304199219	769.9545288085938	1481.677978515625	31.21517562866211	764.1285400390625	1395.086059570312	-132.1113128662109	847.70361328125	1343.202514648438	104.2981185913086	660.111572265625	1441.53466796875	56.9432487487793	600.7587280273438	1440.301513671875	-30.24011421203613	524.0932006835938	1320.52294921875	-5.273637771606445	500.0216979980469	1113.16796875	-44.88339233398438	543.5668334960938	1086.97412109375	27.06315422058105	583.1156616210938	912.5615234375	-180.2081756591797	501.4197387695312	886.9227905273438	-170.0146789550781	495.0120849609375	1013.337219238281	-91.28658294677734	585.4058837890625	725.9778442382812	-235.6194458007812	512.8071899414062	806.9367065429688	-209.2652130126953	570.8404541015625	823.7894897460938	-241.5158081054688	936.1401977539062	1441.327514648438	-34.42982482910156	1003.77734375	1376.707885742188	-18.94173240661621	1053.769165039062	1098.929931640625	-3.501465797424316	968.780517578125	1088.791870117188	39.02993392944336	1010.734802246094	877.284423828125	-127.0936889648438	1080.9140625	869.7698364257812	-81.40190124511719	1067.082763671875	1030.700927734375	-28.93288803100586	1016.253662109375	682.3671875	-132.7322998046875	1028.37548828125	754.8443603515625	-161.26708984375	1084.7744140625	761.0875854492188	-115.7411727905273	835.3768920898438	1641.0859375	-43.50753021240234	671.9398803710938	1672.728271484375	-198.902099609375	765.3222045898438	1670.686401367188	-234.7522583007812	695.417724609375	1646.794921875	-37.38353729248047	598.10302734375	947.5994262695312	3.323337554931641	961.7372436523438	977.0526123046875	-46.26887130737305	909.3984375	1021.573669433594	-131.1164398193359	629.1544189453125	994.2716064453125	-103.8600387573242	680.039306640625	469.1409912109375	8.897321701049805	640.8782958984375	610.6592407226562	-4.589666843414307	729.1557006835938	64.13097381591797	278.8101196289062	697.2015991210938	273.513916015625	141.9312744140625	831.2070922851562	32.64070892333984	88.43869781494141	854.035888671875	39.3373908996582	163.0891571044922	739.6569213867188	33.90773010253906	154.9149475097656	765.7967529296875	97.44420623779297	344.7657470703125	893.7841186523438	525.1160888671875	-245.12939453125	949.8700561523438	775.3327026367188	-165.5845336914062	909.3513793945312	23.99288177490234	-249.7405700683594	875.7128295898438	404.5532836914062	-274.9896240234375	780.8773193359375	44.50079727172852	-421.6399841308594	765.658935546875	41.227783203125	-353.1485595703125	885.1052856445312	25.27346611022949	-359.8520812988281	880.4144897460938	25.6955394744873	-168.5948791503906	
